<svg xmlns="http://www.w3.org/2000/svg" viewBox="0 0 629 560" fill="#fff"><path d="M279.4 355.7c-.7-.3-1.3-.5-1.9-.5-.4 0-1 .1-1.7.4-1.4.7-2.6 2-3.7 3.9s-1.6 4.6-1.7 8.1c0 1.3-.1 2.6-.1 3.8 0 .6 0 1.1.1 1.7 0 1.7.1 3.2.3 4.4.2 1.3.4 2.3.7 3.2s.7 1.5 1.2 2c.8.8 2.1 1.5 4.4 2s5.1.8 7.1.8v-18.9c0-3.1-.3-5.5-1.3-7.3-1.1-1.7-2.1-2.9-3.4-3.6z"/><path d="M52 73v377h467.6l47.4 60.5V73H52zm451.4 146.2c.5-1 1.1-1.9 1.9-2.7.8-.8 1.7-1.4 2.7-1.8s2.1-.7 3.3-.7c1.1 0 2.1.2 3.1.7s1.9 1 2.6 1.8c.7.8 1.3 1.7 1.8 2.7.4 1 .7 2.2.7 3.4 0 1.2-.2 2.3-.7 3.3-.4 1-1 1.9-1.8 2.7s-1.6 1.4-2.6 1.8-2 .7-3.1.7c-1.2 0-2.3-.2-3.3-.7s-1.9-1-2.7-1.8c-.8-.8-1.4-1.6-1.9-2.7-.5-1-.7-2.1-.7-3.3 0-1.3.2-2.4.7-3.4zM256.9 224c.5-1 1.1-1.9 1.9-2.7.8-.8 1.7-1.4 2.7-1.8 1-.4 2.1-.7 3.3-.7 1.1 0 2.1.2 3.1.7 1 .4 1.9 1 2.6 1.8.7.8 1.3 1.7 1.8 2.7.4 1 .7 2.2.7 3.4 0 1.2-.2 2.3-.7 3.3-.4 1-1 1.9-1.8 2.7-.7.8-1.6 1.4-2.6 1.8-1 .4-2 .7-3.1.7-1.2 0-2.3-.2-3.3-.7-1-.4-1.9-1-2.7-1.8s-1.4-1.6-1.9-2.7c-.5-1-.7-2.1-.7-3.3 0-1.3.2-2.4.7-3.4zM113.1 334.2c.5-1.1 1.1-2 1.9-2.8.8-.8 1.7-1.4 2.8-1.9 1-.4 2.2-.7 3.4-.7 1.1 0 2.2.2 3.2.7 1 .5 1.9 1.1 2.7 1.9.8.8 1.4 1.7 1.8 2.8.4 1.1.7 2.2.7 3.5s-.2 2.4-.7 3.4c-.4 1-1.1 1.9-1.8 2.7-.8.8-1.7 1.4-2.7 1.9-1 .5-2.1.7-3.2.7-1.2 0-2.4-.2-3.4-.7-1-.4-2-1.1-2.8-1.9-.8-.8-1.4-1.7-1.9-2.7-.5-1-.7-2.2-.7-3.4s.2-2.5.7-3.5zm42.9 57l-.2 2.4c-.2 1.9-.7 3.8-1.5 5.6-.3.8-.8 1.6-1.2 2.5-.4.8-.9 1.6-1.5 2.4-1.5 2.1-3.2 4-5.3 5.7-2.1 1.7-4.4 3.2-7.1 4.4-2.6 1.2-5.5 2.3-8.7 2.9-2.8.6-5.7 1-8.8 1h-1.1c-1 0-2-.2-3-.3-1-.1-2-.3-3-.5-3.8-.7-7.4-1.9-10.9-3.7-3.5-1.7-6.5-4.1-9.1-7-2.5-2.7-4.4-5.9-5.8-9.6-1.3-3.4-1.9-7.2-1.9-11.4v-1.1c0-1.1.1-2.2.2-3.2.1-1.1.4-3 .9-5.8l17.7 1.4c-.6 2.9-.7 4.8-.8 5.6-.1.8 0 1.5 0 2.2v.7c0 2.7.2 5.1.9 7.2.8 2.2 1.8 4.1 3.2 5.6 1.3 1.5 2.7 2.6 4.3 3.4 1.6.8 3.3 1.4 5.1 1.7.4 0 .9.3 1.3.3.4.1.9.3 1.3.3h.8c3.2 0 6-.8 8.4-1.9 2.5-1.2 4.4-2.9 5.8-4.8.3-.4.6-.8.8-1.2.2-.4.4-.8.5-1.2.1-.4.2-.8.4-1.3.1-.4.2-.8.2-1.1V346h18v45.2zm29 7.8h-18v-75h18v75zm56.1-9.6l-.3 3.7c-2 1-3.5 1.6-4.4 2-.9.4-1.9.7-2.8 1.1-1 .4-2 .7-3.1 1-1.1.3-2.3.6-3.7.9-2.2.5-4.5.6-6.8.8-1.9.1-3.9.1-5.8.1h-1.1c-2.4 0-4.8 0-7.1-.3s-5.7-.9-10.1-1.9l6.6-13.2c4.2 1 7.9 1.5 11.2 1.5h.6c3.1 0 6.3-.1 9.6-.7.1-1 .1-2.3.1-4.1 0-2.8-.2-5.3-.5-7.5-.5-3.6-1.2-6.4-2.2-8.7-1-2.2-2.1-3.9-3.3-5.1-1.2-1.1-2.4-2-3.6-2.6-1.2-.6-5.5-1.3-13-2.4l5.6-13.6c5.5.7 9.2 1.3 11.1 1.7 1.9.5 3.8 1.2 5.9 2.1 2 .9 4 2.1 5.9 3.7 1.9 1.6 3.7 3.6 5.3 6 1.6 2.4 3 5.3 4 8.7s1.8 7.2 2.3 11.7c.1 2 .2 4.1.2 6.3-.2 2.8-.3 5.7-.6 8.8zm249.9-7.7c0 2.4-.4 4.6-1.4 6.6s-2.1 3.9-3.7 5.4c-1.8 1.8-3.9 3.5-6.4 4.5-2.5 1-5.2 1.8-8.1 1.8H422.5c-2.4 0-4.7-.6-6.8-1.3-2.1-.7-3.4-1.4-4-1.8-.6.4-1.9 1.1-4 1.8s-4.4 1.2-6.8 1.2h-5.2c-2.4 0-4.7-.6-6.8-1.3-2.1-.7-3.4-1.4-4-1.8-.6.4-1.9 1.1-4 1.8s-4.4 1.2-6.8 1.2h-5.5c-2.4 0-4.7-.6-6.8-1.3-2.1-.7-3.4-1.4-4-1.8-.5.4-1.8 1.1-4 1.8-2.1.7-4.4 1.2-6.8 1.2h-45.3c-.1 1-.5 3.4-1.3 5.9-.8 2.6-1.8 4.8-3 6.8s-2.7 3.7-4.5 5.2c-1.7 1.4-3.6 2.6-5.6 3.6-2 1-4.1 1.7-6.2 2.2-2.1.5-4.3.9-6.5 1.1-2.2.2-4.2.4-6.5.4s-5.3.1-9.3.1v-14.1h7.7c1.6 0 3.1-.1 4.6-.3s2.8-.3 4-.6c1.2-.2 2.2-.6 3.1-1 .7-.4 1.4-.9 2.1-1.5.7-.6 1.2-1.4 1.8-2.4.5-1 1-2.2 1.3-3.7s.6-2.2.6-2.3c-1.6 0-3.9-.2-6.8-.5s-5.5-.8-7.8-1.5c-2.3-.6-4.4-1.5-6.2-2.5-1.8-1-3.4-2.2-4.8-3.6-1.5-1.6-2.7-3.3-3.5-5.1-.8-1.8-1.3-3.7-1.6-5.7-.4-2-.5-4.1-.5-6.4v-6.7c0-3 .3-5.8 1-8.3.7-2.5 1.6-4.8 2.9-6.8 1.2-2 2.6-3.7 4.3-5.2 1.6-1.5 3.4-2.8 5.3-3.7 3.4-1.6 7-2.6 10.8-2.6h.5c4 0 7.7 1 11.2 2.7 1.8.9 3.5 2.2 5.1 3.6s3 3.2 4.2 5.1c1.2 1.9 2 4.1 2.7 6.5.7 2.4 1 5 1 7.7V385H347c.1 0 .3.1.7-.3.7-.7 1.1-1.4 1.1-2.4V346h18v35.7c0 .6-.1.9-.2 1 0 .2.1.6.3 1 .2.4.5.6.8 1 .4.3.6.3.7.3h5.6c.1 0 .4.1.7-.3.3-.4.6-.7.8-1.1.2-.5.3-.7.3-1 0-.1-.1-.4-.1-1V346h18v36.4c0 1 .4 1.6 1.1 2.3.4.4.5.3.7.3h5.3c.1 0 .4.1.7-.3.3-.4.6-.7.8-1.1.2-.5.4-.7.4-1V346h18v36.4c0 1 .3 1.6 1 2.3.4.4.5.3.6.3h48.9c.1 0 .3.1.7-.3.4-.4.5-.7.7-1.3s.1-1.1.1-1.8V324h18v57.7zm29 17.3h-18v-75h18v75zm0-128.8c0 2.3-.4 4.4-1.3 6.5-.9 2-2.1 3.8-3.6 5.2-1.8 1.8-3.9 3.4-6.2 4.4-2.4 1-5 1.7-7.9 1.7H296.8c-.3 0-.6 1-1.1 1.8-.4.8-.9 1.5-1.4 2.2-1.4 2-3.1 3.8-5.2 5.5-2 1.7-4.3 3-6.9 4.2-2.6 1.2-5.4 1.9-8.4 2.5-2.7.5-5.6.7-8.6.7h-4c-1-.1-1.9-.2-2.9-.4-3.7-.7-7.2-1.8-10.6-3.5-3.4-1.7-6.3-3.9-8.8-6.8-2.4-2.7-4.5-5.8-5.9-9.3-1.2-3.3-2.1-7-2.1-11v-1.1c0-1.1.3-2.1.4-3.1.1-1 .5-2.9 1-5.6l17.3 1.4c-.5 2.8-.6 4.6-.7 5.4-.1.8.1 1.5.1 2.2v.7c0 2.7.2 5 .9 7 .8 2.2 1.7 4 3.1 5.5 1.2 1.4 2.6 2.5 4.2 3.3 1.6.8 3.2 1.4 5 1.7.4 0 .9.3 1.3.4s.8.3 1.2.3h.8c3.1 0 5.8-.8 8.1-1.9 2.4-1.2 4.3-2.8 5.6-4.7.3-.4.5-.8.7-1.2.2-.4.4-.8.5-1.2l.3-1.2c.1-.4.2-.8.2-1.1V236h17v38H400.6c-.1-1-.3-2.1-.8-4.6s-1-4.9-1.6-7.1c-.6-2.2-1.2-4.3-1.9-6.1-.7-1.9-1.5-3.5-2.4-5-.8-1.2-1.7-2.3-2.7-3.2-1-.9-2.1-1.6-3.3-2.1-1.3-.5-2.7-.8-4.2-.8h-.9c-1.5 0-4 .3-7.3 1l-5.5-13c6-1.3 10.7-2 13.9-2 .5 0 1.1 0 1.6.1 3.7.1 7 .8 10 1.9 3 1.1 5.6 2.7 7.9 4.8s4.3 4.4 6 7.2c1.3 2.1 2.4 4.3 3.3 6.7.9 2.4 1.7 4.9 2.5 7.5.7 2.6 1.3 5.4 1.8 8.3.5 2.8.9 4.4 1.1 6.4H501c.7 0 1.3-.7 1.5-1.5.3-.7.5-1.6.5-2.5v-34h17v34.2z"/></svg>