<svg xmlns="http://www.w3.org/2000/svg" viewBox="0 0 629 560" fill="#fff"><path d="M376.6 241.9l-6.5 33.6h13.2l-6.5-33.6zM430.2 351.9l-6.5 33.6H437l-6.5-33.6zM370.5 337.7h-6.1v67.7h6.1c3.7 0 6.4-.9 7.9-2.8 1.6-1.9 2.3-4.8 2.3-8.8v-44.7c0-3.6-.7-6.5-2.2-8.5-1.4-1.9-4.1-2.9-8-2.9zM446.9 231.4c-.8-1.3-2-2.2-3.5-2.8-1.5-.6-3.4-.9-5.9-.9h-6.9v28.9h7.6c2.3 0 4.2-.3 5.6-1 1.4-.7 2.5-1.6 3.2-2.8.7-1.2 1.2-2.7 1.5-4.5.3-1.8.4-3.8.4-6.2 0-2.3-.1-4.4-.4-6.2-.3-1.7-.8-3.3-1.6-4.5z"/><path d="M52 73v377h468l47 60V73H52zm216.5 142.2h39.6v12.5h-26.3v27.2h22.9v12.5h-22.9v27.2h26.3v13.3h-39.6v-92.7zm-50.1 32.5h-.3l-10 60.2h-12.5l-13.8-92.8h14.1l6.6 58.9h.3l10.4-58.9h10.2l10.8 60.3h.3l6.4-60.3H255l-13.8 92.8h-12.5l-10.3-60.2zm59.4 104.2h-13.3v-3c0-3-.7-5.7-2.1-7.9s-3.8-3.3-7.2-3.3c-1.8 0-3.3.3-4.5 1-1.2.7-2.1 1.6-2.7 2.7-.7 1.1-1.1 2.3-1.4 3.8-.3 1.4-.4 2.9-.4 4.5 0 1.8.1 3.4.2 4.6.1 1.3.5 2.3 1 3.3.5.9 1.3 1.7 2.3 2.4 1 .7 2.4 1.4 4.1 2.1l10.2 4c3 1.1 5.3 2.5 7.2 4 1.8 1.5 3.2 3.3 4.2 5.3s1.7 4.4 2 7c.3 2.7.5 5.7.5 9.1 0 3.9-.4 7.5-1.2 10.9-.8 3.3-2.1 6.2-3.8 8.6-1.8 2.4-4.1 4.3-7.1 5.7-3 1.4-6.6 2.1-10.8 2.1-3.2 0-6.2-.6-9-1.7s-5.2-2.7-7.2-4.6c-2-2-3.6-4.3-4.8-7-1.2-2.7-1.8-5.6-1.8-8.7v-5h13.3v4.2c0 2.4.7 4.6 2.1 6.6 1.4 2 3.8 2.9 7.2 2.9 2.3 0 4-.3 5.3-1 1.3-.7 2.2-1.6 2.9-2.7s1.1-2.6 1.2-4.4c.2-1.7.3-3.6.3-5.7 0-2.4-.1-4.4-.3-6-.2-1.6-.5-2.8-1.1-3.8-.6-1-1.3-1.7-2.3-2.3-1-.6-2.3-1.3-4-2l-9.5-3.9c-5.7-2.3-9.6-5.4-11.5-9.3-2-3.9-2.9-8.7-2.9-14.5 0-3.5.5-6.8 1.4-9.9 1-3.1 2.4-5.8 4.2-8.1 1.9-2.3 4.2-4.1 7.1-5.4 2.9-1.3 6.2-2 10-2 3.3 0 6.3.6 9.1 1.8 2.7 1.2 5.1 2.8 7 4.8 2 2 3.5 4.2 4.5 6.7s1.6 5 1.6 7.6v6.5zm58.1 45.2c0 3-.6 5.9-1.7 8.5-1.1 2.6-2.7 4.9-4.6 6.8-2 2-4.2 3.5-6.8 4.6-2.6 1.1-5.4 1.7-8.3 1.7-3 0-5.7-.6-8.3-1.7-2.6-1.1-4.9-2.7-6.8-4.6s-3.5-4.2-4.6-6.8c-1.1-2.6-1.7-5.4-1.7-8.5v-71.9h13.3v70.6c0 3.3.8 5.7 2.3 7.3 1.6 1.6 3.5 2.3 5.9 2.3 2.3 0 4.3-.8 5.9-2.3 1.6-1.6 2.3-4 2.3-7.3v-70.6h13.3v71.9zm58.1-4.6c0 8.7-2.1 15.1-6.3 19.2-4.2 4.1-10.3 6.2-18.2 6.2H351v-92.8h19.7c7.6 0 13.3 2.1 17.3 6.3 4 4.2 6 10.1 6 17.7v43.4zm-4.3-84.6l-3.9-19.9h-18.1l-3.9 19.9h-13.3l20.7-92.8h11.1l20.7 92.8h-13.3zm53.7 110l-3.9-19.9h-18.1l-3.9 19.9h-13.3l20.7-92.8H436l20.7 92.8h-13.3zm7.6-110l-12.4-39.6h-7.9v39.6h-13.3v-92.8h21.4c15.6 0 23.4 9.1 23.4 27.2 0 5.4-.8 10-2.5 13.9-1.7 3.9-4.7 7-8.9 9.3l14.3 42.3H451zm63.3 110h-12.5l-20.3-55.8h-.3v55.8h-13.3v-92.8h12.8l20.1 55.9h.3v-55.9h13.3v92.8zm3.4-190.2h-26.3v27.2h22.9v12.5h-22.9v27.2h26.3v13.3h-39.6v-92.8h39.6v12.6z"/></svg>